<svg width="24" height="25" viewBox="0 0 24 25" fill="none" xmlns="http://www.w3.org/2000/svg">
<path d="M14 20.9V15.1C14 14.7686 14.2686 14.5 14.6 14.5H20.4C20.7314 14.5 21 14.7686 21 15.1V20.9C21 21.2314 20.7314 21.5 20.4 21.5H14.6C14.2686 21.5 14 21.2314 14 20.9Z" stroke="currentColor"/>
<path d="M3 20.9V15.1C3 14.7686 3.26863 14.5 3.6 14.5H9.4C9.73137 14.5 10 14.7686 10 15.1V20.9C10 21.2314 9.73137 21.5 9.4 21.5H3.6C3.26863 21.5 3 21.2314 3 20.9Z" stroke="currentColor"/>
<path d="M14 9.9V4.1C14 3.76863 14.2686 3.5 14.6 3.5H20.4C20.7314 3.5 21 3.76863 21 4.1V9.9C21 10.2314 20.7314 10.5 20.4 10.5H14.6C14.2686 10.5 14 10.2314 14 9.9Z" stroke="currentColor"/>
<path d="M3 9.9V4.1C3 3.76863 3.26863 3.5 3.6 3.5H9.4C9.73137 3.5 10 3.76863 10 4.1V9.9C10 10.2314 9.73137 10.5 9.4 10.5H3.6C3.26863 10.5 3 10.2314 3 9.9Z" stroke="currentColor"/>
</svg>
