<svg width="24" height="25" viewBox="0 0 24 25" fill="none" xmlns="http://www.w3.org/2000/svg">
<path d="M12.0913 3.97963C13.1884 3.25633 14.6496 4.04308 14.6496 5.35715V19.6429C14.6496 20.9569 13.1884 21.7437 12.0913 21.0204L6.09232 17.065C6.03495 17.0272 5.96791 17.0071 5.89961 17.0071H2.99961C1.53606 17.0071 0.349609 15.8207 0.349609 14.3571V10.6429C0.349609 9.17933 1.53605 7.99287 2.99961 7.99287H5.89961C5.96809 7.99287 6.03507 7.97278 6.09227 7.93507L12.0913 3.97963Z" fill="currentColor"/>
<path d="M19.8699 5.606C20.0105 5.46555 20.2011 5.38666 20.3999 5.38666C20.5986 5.38666 20.7893 5.46555 20.9299 5.606C24.7379 9.413 24.7379 15.586 20.9299 19.394C20.8612 19.4677 20.7784 19.5268 20.6864 19.5678C20.5944 19.6088 20.4951 19.6308 20.3944 19.6326C20.2937 19.6344 20.1937 19.6158 20.1003 19.5781C20.0069 19.5404 19.9221 19.4843 19.8509 19.413C19.7796 19.3418 19.7235 19.257 19.6858 19.1636C19.6481 19.0702 19.6295 18.9702 19.6313 18.8695C19.6331 18.7688 19.6551 18.6695 19.6961 18.5775C19.7371 18.4855 19.7962 18.4027 19.8699 18.334C20.6361 17.5679 21.2439 16.6584 21.6585 15.6574C22.0732 14.6564 22.2866 13.5835 22.2866 12.5C22.2866 11.4165 22.0732 10.3436 21.6585 9.34262C21.2439 8.34161 20.6361 7.43209 19.8699 6.666C19.7294 6.52537 19.6506 6.33475 19.6506 6.136C19.6506 5.93725 19.7294 5.74662 19.8699 5.606Z" fill="currentColor"/>
<path d="M17.2179 8.257C17.2875 8.1873 17.3702 8.13201 17.4612 8.09429C17.5523 8.05657 17.6498 8.03716 17.7484 8.03716C17.8469 8.03716 17.9445 8.05657 18.0355 8.09429C18.1265 8.13201 18.2092 8.1873 18.2789 8.257C18.8361 8.81416 19.2782 9.47564 19.5798 10.2037C19.8813 10.9317 20.0366 11.712 20.0366 12.5C20.0366 13.288 19.8813 14.0683 19.5798 14.7963C19.2782 15.5244 18.8361 16.1858 18.2789 16.743C18.1373 16.8795 17.9478 16.9551 17.7512 16.9533C17.5546 16.9515 17.3665 16.8725 17.2275 16.7334C17.0885 16.5942 17.0097 16.4061 17.0081 16.2094C17.0065 16.0128 17.0822 15.8234 17.2189 15.682C17.6367 15.2641 17.9682 14.7681 18.1943 14.2221C18.4205 13.6761 18.5369 13.0909 18.5369 12.5C18.5369 11.909 18.4205 11.3239 18.1943 10.7779C17.9682 10.2319 17.6367 9.73586 17.2189 9.318C17.0784 9.17737 16.9995 8.98675 16.9995 8.788C16.9995 8.58924 17.0784 8.39862 17.2189 8.25799L17.2179 8.257Z" fill="currentColor"/>
</svg>
