<svg width="24" height="25" viewBox="0 0 24 25" fill="none" xmlns="http://www.w3.org/2000/svg">
<path d="M6 12.5C6 14.157 4.657 15.5 3 15.5C1.343 15.5 0 14.157 0 12.5C0 10.843 1.343 9.5 3 9.5C4.657 9.5 6 10.843 6 12.5ZM15 12.5C15 14.157 13.657 15.5 12 15.5C10.343 15.5 9 14.157 9 12.5C9 10.843 10.343 9.5 12 9.5C13.657 9.5 15 10.843 15 12.5ZM24 12.5C24 14.157 22.657 15.5 21 15.5C19.343 15.5 18 14.157 18 12.5C18 10.843 19.343 9.5 21 9.5C22.657 9.5 24 10.843 24 12.5Z" fill="currentColor"/>
</svg>
