<svg width="21" height="20" viewBox="0 0 21 20" fill="none" xmlns="http://www.w3.org/2000/svg">
<g clip-path="url(#clip0_124_306)">
<path d="M2.04917 5L1.64167 3.33333H19.355L18.9458 5H2.04917ZM3.36667 1.66667L3.00083 0H17.9958L17.63 1.66667H3.36667ZM20.5 15H0.5L2.16667 20H18.8333L20.5 15ZM3.08667 13.3333L2.40833 8.33333H18.5842L17.885 13.3333H19.5683L20.5 6.66667H0.5L1.40417 13.3333H3.08667ZM5.40667 10.0042C5.36583 9.54167 5.75583 9.16667 6.27583 9.16667C6.79667 9.16667 7.23833 9.54083 7.26333 10.0033C7.28833 10.4658 6.89833 10.8408 6.39333 10.8408C5.88917 10.8408 5.44667 10.4667 5.40667 10.0042ZM11.7192 9.8175L10.1992 12.0508L8.68833 10.9575L6.33333 13.3333H14.6667L11.7192 9.8175Z" fill="currentColor" fill-opacity="0.5"/>
</g>
<defs>
<clipPath id="clip0_124_306">
<rect width="20" height="20" fill="currentColor" transform="translate(0.5)"/>
</clipPath>
</defs>
</svg>
