<svg width="24" height="25" viewBox="0 0 24 25" fill="none" xmlns="http://www.w3.org/2000/svg">
<path d="M18 14.5L20.0005 12.5L18 14.5ZM22 10.5L20.0005 12.5L22 10.5ZM20.0005 12.5L18 10.5L20.0005 12.5ZM20.0005 12.5L22 14.5L20.0005 12.5Z" fill="currentColor"/>
<path d="M2 14.3571V10.6429C2 9.53828 2.89543 8.64285 4 8.64285H6.9C7.09569 8.64285 7.28708 8.58543 7.45046 8.47771L13.4495 4.52227C14.1144 4.08389 15 4.56074 15 5.35713V19.6429C15 20.4392 14.1144 20.9161 13.4495 20.4777L7.45046 16.5223C7.28708 16.4146 7.09569 16.3571 6.9 16.3571H4C2.89543 16.3571 2 15.4617 2 14.3571Z" fill="currentColor"/>
<path d="M17.5404 14.0403C17.2866 14.2941 17.2865 14.7057 17.5403 14.9596C17.7941 15.2134 18.2057 15.2135 18.4596 14.9597L17.5404 14.0403ZM22.4597 10.9596C22.7135 10.7057 22.7134 10.2941 22.4596 10.0403C22.2057 9.78651 21.7941 9.78656 21.5403 10.0404L22.4597 10.9596ZM18.4596 10.0403C18.2057 9.78651 17.7941 9.78656 17.5403 10.0404C17.2865 10.2943 17.2866 10.7059 17.5404 10.9597L18.4596 10.0403ZM21.5403 14.9596C21.7941 15.2134 22.2057 15.2135 22.4596 14.9597C22.7134 14.7059 22.7135 14.2943 22.4597 14.0404L21.5403 14.9596ZM7.45046 8.47771L7.80825 9.02038L7.80826 9.02037L7.45046 8.47771ZM13.4495 4.52227L13.0917 3.97961L13.0917 3.97961L13.4495 4.52227ZM13.4495 20.4777L13.8073 19.935L13.8073 19.935L13.4495 20.4777ZM7.45046 16.5223L7.80826 15.9796L7.8082 15.9796L7.45046 16.5223ZM18.4596 14.9597L20.4601 12.9597L19.5409 12.0403L17.5404 14.0403L18.4596 14.9597ZM21.5403 10.0404L19.5408 12.0404L20.4602 12.9596L22.4597 10.9596L21.5403 10.0404ZM20.4601 12.0403L18.4596 10.0403L17.5404 10.9597L19.5409 12.9597L20.4601 12.0403ZM19.5408 12.9596L21.5403 14.9596L22.4597 14.0404L20.4602 12.0404L19.5408 12.9596ZM2.65 14.3571V10.6429H1.35V14.3571H2.65ZM2.65 10.6429C2.65 9.89726 3.25442 9.29285 4 9.29285V7.99285C2.53644 7.99285 1.35 9.17931 1.35 10.6429H2.65ZM4 9.29285H6.9V7.99285H4V9.29285ZM6.9 9.29285C7.2229 9.29285 7.53869 9.19811 7.80825 9.02038L7.09267 7.93505C7.03547 7.97276 6.96848 7.99285 6.9 7.99285V9.29285ZM7.80826 9.02037L13.8073 5.06493L13.0917 3.97961L7.09266 7.93505L7.80826 9.02037ZM13.8073 5.06494C14.04 4.91148 14.35 5.07843 14.35 5.35713H15.65C15.65 4.04306 14.1888 3.25631 13.0917 3.97961L13.8073 5.06494ZM14.35 5.35713V19.6429H15.65V5.35713H14.35ZM14.35 19.6429C14.35 19.9215 14.04 20.0885 13.8073 19.935L13.0917 21.0204C14.1888 21.7437 15.65 20.9569 15.65 19.6429H14.35ZM13.8073 19.935L7.80826 15.9796L7.09266 17.065L13.0917 21.0204L13.8073 19.935ZM7.8082 15.9796C7.53882 15.802 7.22308 15.7071 6.9 15.7071V17.0071C6.9683 17.0071 7.03534 17.0272 7.09272 17.065L7.8082 15.9796ZM6.9 15.7071H4V17.0071H6.9V15.7071ZM4 15.7071C3.25441 15.7071 2.65 15.1027 2.65 14.3571H1.35C1.35 15.8207 2.53645 17.0071 4 17.0071V15.7071Z" fill="currentColor"/>
</svg>
