<svg width="24" height="25" viewBox="0 0 24 25" fill="none" xmlns="http://www.w3.org/2000/svg">
<path d="M19.5 14.7781L19.51 14.767M13 18.4681L16.5 17.2681L22 19.2681M2 10.2681V3.86807C2 3.5367 2.26863 3.26807 2.6 3.26807H8.77805C8.92127 3.26807 9.05977 3.31931 9.16852 3.41252L12.3315 6.12362C12.4402 6.21683 12.5787 6.26807 12.722 6.26807H21.4C21.7314 6.26807 22 6.5367 22 6.86807V9.26807M2 10.2681V18.6681C2 18.9995 2.26863 19.2681 2.6 19.2681H10M2 10.2681H10M22 12.8681V20.6681C22 20.9995 21.7314 21.2681 21.4 21.2681H13.6C13.2686 21.2681 13 20.9995 13 20.6681V12.8681C13 12.5367 13.2686 12.2681 13.6 12.2681H21.4C21.7314 12.2681 22 12.5367 22 12.8681Z" stroke="currentColor" stroke-width="1.3" stroke-linecap="round" stroke-linejoin="round"/>
</svg>
